<svg viewBox="74.86363636363626 62.5 1372.4999999999998 2125.0000000000005" xmlns="http://www.w3.org/2000/svg" overflow="visible" xmlns:xlink="http://www.w3.org/1999/xlink" width="1372.4999999999998px" height="2125.0000000000005px"><g id="Master/Character/Sitting" stroke="none" stroke-width="1" fill="none" fill-rule="evenodd"><g id="Sitting" transform="translate(-81.000000, 637.000000) scale(1 1)"><g id="Sitting/Closed Legs 1" stroke="none" stroke-width="1" fill="none" fill-rule="evenodd"><path d="M1508.3616,1440.94804 C1478.6816,1398.70604 1416.11866,1391.71303 1375.92766,1362.11203 C1354.75466,1345.87603 1332.34974,1335.12981 1315.89574,1313.26881 C1342.09374,1282.48381 1309.69474,1210.31781 1303.02874,1168.64281 C1276.60974,1059.53181 1252.17474,948.676812 1220.75274,839.694812 C1275.20574,856.649812 1261.01974,755.130812 1253.24274,731.655812 C1252.70474,728.428812 1248.70874,727.784812 1246.25974,726.767812 C1246.94474,722.158812 1248.83174,721.147812 1243.11074,719.874812 C1241.19774,692.253812 1249.01074,661.324812 1234.88974,636.924812 C1218.97374,610.292812 1180.92774,588.004812 1149.49374,587.636812 C1127.41174,499.926812 1123.36574,458.557812 1018.74874,495.737812 C1021.06274,487.194812 1021.78174,479.359812 1017.75074,470.729812 C1002.01874,423.182812 982.248743,371.167812 965.056743,322.983812 C945.242743,267.534812 924.753743,210.197812 898.253743,156.920812 C879.797743,123.088812 822.056743,114.043812 782.918743,119.644812 C773.582743,103.169812 750.048743,57.5998116 720.278743,68.1358116 C720.054743,54.3918116 719.841743,40.6478116 719.663743,26.9028116 C719.509743,14.9548116 720.766743,2.7038116 716.173743,-8.6401884 C711.307743,-20.6571884 701.400743,-26.9991884 689.764743,-31.5991884 C654.544743,-43.2351884 614.081743,-61.9291884 576.915743,-50.3621884 C544.443743,-35.5391884 548.225743,20.1988116 532.511743,50.4978116 C510.489743,17.8388116 472.934743,39.7368116 464.989743,74.7628116 C374.524743,110.829812 296.767743,69.8568116 290.978743,211.437812 C295.966743,237.246812 300.207743,261.455812 297.843743,287.517812 L295.106743,287.797812 C271.952743,413.246812 263.048743,547.721812 268.645743,687.521812 C267.524743,742.565812 247.469743,793.940812 228.075743,843.612812 C213.810743,880.136812 199.080743,917.903812 192.097743,956.652812 C184.354743,988.925812 155.891743,1144.12181 219.182743,1092.59781 C221.607743,1269.15981 378.913743,1291.76481 520.568743,1252.76581 C670.949743,1221.49681 840.239743,1230.48681 934.093743,1079.21481 C965.932743,1133.71081 976.917743,1167.35681 984.909743,1224.34381 C993.680743,1266.08981 1006.4166,1313.5016 1029.8276,1341.1146 C1009.66958,1377.40704 999.796665,1421.61735 1000.7696,1450.4316 C1001.15178,1461.75005 995.976425,1466.99123 1003.4146,1474.02681 C1039.09652,1507.77745 1118.70777,1508.15617 1179.24441,1523.18217 C1220.75274,1528.46613 1370.84393,1548.6802 1393.78174,1535.50381 C1409.77874,1539.97781 1391.17536,1498.33907 1407.17136,1497.45007 C1412.6443,1497.4907 1413.37683,1490.51925 1418.9966,1490.77541 C1454.87408,1492.41076 1532.22592,1502.95894 1513.5243,1474.02681 L1508.3616,1440.94804 Z" id="Skin" fill="#d08b5b"/><path d="M1352,1543 C1261.15681,1539.5537 1135.36026,1513.9987 1046.88103,1494.8003 C1023.90659,1490.48231 1007.56519,1478.47486 1002.78292,1468.2808 C1000.6142,1463.65787 1001.3087,1455.3214 1003.40046,1445.59146 C1005.08,1437.77902 1000.12059,1429.06821 1001.03715,1420.66001 C1002.33651,1408.74007 1010.45518,1389.2646 1014.65452,1382.14633 C1023,1368 1028.71185,1331.90087 1029.33382,1332.28033 C1040.43438,1339.0527 1053.0201,1341.99608 1065.97853,1345.62301 C1066.14542,1345.66972 1069.31236,1353.71621 1069.47804,1353.76368 C1069.53468,1353.92479 1069.59205,1354.08624 1069.65015,1354.24801 C1073.0989,1363.8513 1077.78641,1367.93086 1083.35488,1372.90747 C1089.44236,1378.34791 1096.57622,1378.26268 1104.24673,1379.2414 C1123.29018,1381.67125 1135.58827,1372.25846 1153.65489,1359.75049 L1154.99384,1359.71388 C1157.00188,1359.66838 1159.07269,1359.67232 1161.17586,1359.67643 C1171.76944,1359.69713 1183.249,1359.80524 1191.44338,1353.1469 C1191.66395,1352.96769 1191.8802,1352.78513 1192.09092,1352.60067 C1192.2877,1352.78995 1192.49337,1352.97337 1192.70871,1353.15025 C1193.10815,1353.47833 1193.52321,1353.76938 1193.95053,1354.02924 C1195.77008,1352.95113 1197.55668,1351.86333 1199.33046,1350.78336 C1205.34273,1347.12278 1221.81069,1337.89851 1221.95883,1338.14911 C1226.9234,1346.54704 1307.96946,1299.3253 1315,1306 C1324.00451,1314.54877 1344.42291,1347.09692 1374.59028,1361.13909 C1428,1386 1465,1404 1493,1425 C1521,1446 1506.24213,1458.81806 1509,1460 C1516,1463 1513.34675,1484.77573 1513,1488 C1512.69525,1490.85169 1474.01236,1495.67872 1450,1495 C1422.78671,1494.23081 1409.73832,1487.91992 1407.28483,1491.59703 C1400.75327,1500.50952 1399.65832,1514.64384 1404,1534 C1389.33333,1544 1372,1547 1352,1543 Z" id="Shoes" fill="#FFF"/><path d="M513.785241,34.0003234 C516.752615,34.0131023 519.702679,34.4047499 522.574361,35.2013603 C526.416664,37.5888608 528.92428,39.7827409 531.309024,42.4698454 C531.732584,42.9471082 532.140234,43.4263712 532.532787,43.9103018 C532.299074,44.4702457 532.071082,45.0298311 531.846758,45.5850283 L531.396166,46.7093118 C530.050468,50.1025897 528.794321,53.6677258 528.568136,57.0810693 L528.214781,62.4135148 L525.294307,60.355276 C530.198105,74.2017391 536.786436,87.4128833 543.62378,100.493188 L549.93709,112.521836 L571.488666,153.791641 C576.409945,163.179725 580.980471,171.854005 583.946138,177.375827 L584.562504,178.5946 L585.830095,181.137364 C587.562908,184.581931 589.44732,187.891176 592.90163,189.810237 C593.240064,189.998256 593.581867,190.166431 593.926606,190.317295 C594.060591,190.732004 594.19075,191.148274 594.316837,191.5662 C596.161493,197.680511 690.971936,542.395393 691.119736,542.529274 C692.833511,544.081649 830.107392,579.885731 862.983343,586.704892 C865.549418,587.235645 868.118165,587.807581 870.691235,588.380598 C872.949203,588.883443 876.198703,589.062601 879.911249,589.063328 L880.534204,589.061821 C889.104035,589.019338 899.923949,588.092968 906.748445,587.999294 C907.314013,586.5538 907.870452,585.103768 908.415618,583.649592 L909.049693,581.946641 C909.722928,581.83009 910.38528,581.749843 911.035166,581.708702 C911.318639,581.690757 911.605402,581.679894 911.895298,581.675898 L912.332469,581.675029 C924.491413,581.791996 941.90588,593.552371 953.164165,601.646992 L957.490882,604.77537 L958.342964,605.386026 L960.847474,607.152101 L959.702631,609.455013 C942.53727,644.086201 927.236946,679.583938 913.132436,715.563402 L913.14234,715.565357 C910.458757,722.367941 907.828063,729.193378 905.242657,736.030831 L903.311976,741.161005 L898.612361,740.347548 L896.805715,740.025583 C892.392039,739.23033 783.790134,738.888469 571,739 L200.708273,1089.22756 C199.65492,1087.8155 198.71721,1086.33139 197.919787,1084.76096 C195.842687,1080.67034 178.557103,1051.56024 197,964 C215.549342,875.934397 268.626586,755.469342 271,736 C270.916345,714.283447 271.82521,666.455764 271.492358,644.718007 L273.688917,599.471455 L275.687642,558.575628 C288.074701,306.012406 303.30254,168.879207 305.371159,161.176029 C312.893625,133.163674 329.896774,109.588034 361.106825,97.9882622 L362.056938,97.6404274 C371.810881,94.0012595 382.183195,91.5381524 392.66929,89.2589543 L399.150564,87.8653668 L400.774074,87.5040895 L403.011817,86.9854491 L404.047398,86.7381679 C419.038322,83.12703 447.459955,81.9300474 466.652879,69.613307 C481.752155,59.9235967 485.880586,44.5963547 494.309006,39.3022845 C500.271687,35.927438 506.799044,34.0709977 513.261419,34.0003234 L513.785241,34.0003234 Z M729.510219,62.5554237 C730.23399,62.5554237 730.946337,62.5781275 731.654539,62.629236 C731.864981,62.6444229 732.075459,62.6619062 732.290881,62.6839677 C732.477471,62.7785935 732.662431,62.8745798 732.845745,62.9719365 C747.574302,70.7941911 760.928466,92.3803104 772.029239,117.28115 L786.441665,115.562983 L792.063372,114.921745 C795.110871,114.584949 797.695193,114.322808 799.16335,114.22594 L799.82232,114.190953 L802.067795,114.424145 C836.38165,118.031448 880.640765,124.56136 898.801546,156.448001 C916.981138,200.49139 1019.97915,484.357728 1023.90702,488.291389 C1024.04824,488.432611 1024.20324,488.565517 1024.3698,488.676558 L1029.01845,491.775656 L1015.8672,493.93874 C1014.49325,494.515681 1025.77931,559.141157 1013,559.001601 C1001.0903,558.868448 965.499999,493.987386 953,494 C935.214211,494.017948 902.880877,494.017948 856,494 C810.389269,381.169989 781.598716,305.407118 769.628342,266.711388 C741.290745,175.106564 742.656339,127.635817 741.725124,124.299148 C741.595183,122.644219 741.368132,121.690615 740.893654,120.708215 L740.487699,119.868308 C738.738301,113.620551 736.971672,107.377226 735.184268,101.138331 L733.389808,94.9009143 L729.573793,95.5709437 C729.387411,95.0711476 729.210279,94.5713946 729.032226,94.0611852 C725.934844,85.0789331 723.586031,75.8668249 721.939088,66.5114233 C721.77373,65.5721145 721.615515,64.6317471 721.465065,63.6918074 C722.382889,63.4376494 723.345465,63.2195742 724.368321,63.0376496 C725.9924,62.7487916 727.505257,62.5978829 728.965134,62.5632391 L729.510219,62.5554237 Z" id="Jacket" fill="#E86BBB" fill-rule="nonzero"/><path d="M738.476133,550.208319 C734.638384,549.777634 701.055843,543.93951 691.090339,540.577532 C689.741523,537.880677 683.934197,516.618429 673.668361,476.790788 C665.168662,446.574801 656.8099,416.31773 648.451055,386.06034 C637.033515,344.731074 613.432937,255.755541 613.234713,255.052252 C613.567878,255.213404 649.668959,268.598157 685,269 C719.594299,269.393463 768.435476,252.807325 768.62034,252.670503 C768.749938,253.117096 856.365992,493.765248 855.939294,493.883772 C847.72716,496.156264 822.766953,504.180235 793.71759,518.29918 C771.051647,529.315574 742.766625,546.780989 738.476133,550.208319 Z" id="Top" fill="#FFF"/><path d="M1499.4546,1481.8336 C1473.0026,1487.5496 1445.7966,1485.9536 1418.9966,1488.1876 C1419.8626,1485.9426 1420.5886,1483.6456 1421.1566,1481.3106 C1448.8496,1477.9566 1477.8926,1476.3646 1504.2946,1467.2096 C1504.9176,1470.1876 1505.3846,1473.1986 1505.5696,1476.2386 C1505.5946,1476.6456 1505.5396,1481.1936 1506.1886,1480.3536 C1505.3846,1481.3956 1500.6546,1481.6076 1499.4546,1481.8336 M1365.8156,1413.1636 C1317.6756,1397.3206 1266.6216,1383.7166 1229.5146,1346.9626 C1229.5886,1346.7596 1229.6596,1346.5546 1229.7296,1346.3496 C1237.3676,1344.1856 1245.7686,1339.5656 1253.1186,1344.5896 C1276.6576,1343.7766 1301.2416,1335.5236 1317.7266,1318.0806 C1318.8516,1318.3196 1319.9416,1318.6566 1321.0026,1319.0736 C1352.7216,1373.0606 1420.2986,1383.3436 1469.7896,1414.6246 C1489.8516,1426.3076 1527.2186,1457.7716 1479.4136,1458.4766 C1460.5426,1461.3396 1441.5626,1463.4576 1422.5326,1464.9206 C1421.0646,1434.5226 1390.9706,1421.2056 1365.8156,1413.1636 M1399.4676,1491.0226 C1389.8946,1504.0836 1372.6116,1509.2446 1356.9756,1507.9676 C1345.4756,1506.4046 1335.3276,1502.3576 1323.3676,1503.2296 C1232.6936,1499.7836 1143.5296,1480.9896 1055.1096,1461.8036 C975.9156,1446.9366 1036.4216,1388.4406 1029.8276,1341.1146 C1041.0046,1347.9336 1053.6756,1352.9146 1066.7236,1356.5666 C1083.5316,1403.3696 1129.4666,1391.1446 1161.9936,1368.7226 C1174.5436,1368.3166 1189.8246,1370.2436 1200.0886,1361.9036 C1200.6876,1362.3956 1201.3186,1362.8116 1201.9716,1363.1676 C1210.1166,1358.3666 1217.5706,1353.3416 1226.1126,1349.6386 C1254.9816,1398.4726 1316.3026,1409.6206 1365.5056,1428.4726 C1395.6076,1436.5896 1420.2566,1459.8656 1399.4676,1491.0226 M1397.8226,1532.8566 C1372.3766,1540.4686 1345.4476,1539.1486 1319.1926,1537.0056 C1232.9416,1529.5256 1147.2626,1514.8156 1063.5866,1492.5626 C1043.7416,1487.2826 1005.2416,1481.1526 1003.4146,1456.2306 C1021.0796,1479.4126 1052.6166,1482.1436 1079.1086,1488.1216 C1166.0706,1505.1776 1255.1456,1527.2046 1344.0836,1522.9576 C1362.8666,1528.3056 1383.3386,1524.0836 1399.2306,1513.6706 C1398.7256,1520.0636 1398.2676,1526.4596 1397.8226,1532.8566 M927.5706,718.7606 C940.4506,684.5706 954.4196,650.8406 967.9306,616.8606 C992.9996,630.9206 1021.2996,636.0606 1050.2006,639.3406 C1050.8796,639.6806 1051.6006,639.9806 1052.3796,640.2206 C1053.7496,640.5006 1054.8996,640.3706 1055.8206,639.9506 C1094.3606,644.0306 1133.6696,645.6306 1167.5706,661.4006 C1180.6896,667.5006 1192.9996,675.7206 1204.1406,687.0406 C1216.3296,698.7206 1226.1496,712.8206 1232.7406,728.3806 C1234.7996,733.1806 1235.8906,738.1706 1239.1406,742.1206 C1240.1206,747.4306 1241.2296,752.7006 1241.9796,758.0606 C1243.8796,779.0106 1246.4706,801.0806 1238.3906,821.1806 C1233.3796,833.4906 1223.1106,823.5906 1216.2996,818.7706 C1205.2206,811.0306 1195.0196,802.1506 1184.8506,793.2706 C1153.6106,763.8806 1117.1006,738.8906 1073.2806,734.7606 C1025.9706,728.1806 974.7096,719.9606 927.5706,718.7606 M908.6106,718.8306 C906.0106,725.4706 903.4596,732.1306 900.9506,738.8006 C888.5196,736.6706 862.0606,731.6506 851.2296,725.9306 C855.0896,726.0606 858.9106,724.0506 859.8906,719.4406 C860.3206,717.4006 860.9996,715.4906 861.5306,713.5006 C868.0606,692.2106 873.6296,670.4906 882.8506,650.0806 C891.8706,628.5306 902.6006,607.5906 910.7996,585.7206 C924.7006,584.8406 946.6606,602.1006 956.5896,609.1406 C938.8796,644.8706 923.1496,681.5206 908.6696,718.6706 C908.3996,718.6706 908.1206,718.6706 907.8506,718.6806 C908.1006,718.7306 908.3606,718.7806 908.6106,718.8306 M826.7206,716.3106 C755.4196,711.8506 683.1606,716.5506 612.6806,703.9006 C599.3206,701.6306 586.8706,697.5306 575.3096,691.9406 C541.6696,675.6806 515.5306,646.8106 496.2806,613.7606 C426.7406,509.0106 350.2206,404.9606 315.9906,282.2306 C295.7096,222.8306 291.7606,134.0406 362.6496,108.4806 C394.0896,96.7406 432.0596,97.4606 459.1206,76.1606 C456.0596,87.4206 454.3396,99.2006 452.7606,109.6306 C450.1006,126.6406 447.4796,144.2406 449.6406,161.4406 C449.6606,161.5906 449.6806,161.7406 449.7096,161.8806 C446.1606,171.5606 457.3296,180.7006 468.2896,179.7506 C491.4106,179.2206 502.7496,151.4206 525.9196,150.5706 C534.3796,150.2606 539.4306,155.3106 544.6106,161.3206 C557.1496,175.8906 569.4306,190.7406 584.5796,202.6806 C585.6606,203.5306 587.1006,202.5006 586.4906,201.2006 C578.8396,184.8506 568.1106,170.3706 557.4706,155.8406 C535.4106,120.5906 505.7206,136.8106 480.6206,158.2406 C475.7296,161.7906 470.7606,164.6706 465.7296,163.4106 C466.0596,162.2006 466.1496,160.8006 465.9396,159.2406 C464.0706,145.4406 465.8996,130.8906 467.7996,117.2006 C472.1406,91.6506 470.8506,58.3306 495.4796,42.8606 C506.2296,36.7806 519.2296,36.0106 529.6896,42.9106 C527.7696,47.6206 525.4796,52.9206 525.1496,57.9006 C523.0496,56.4206 521.6296,56.8806 521.2496,60.0906 C529.3996,84.1306 542.7406,106.2206 554.0596,128.8906 C562.8996,145.9006 571.7896,162.8906 580.8606,179.7806 C583.5396,185.0106 585.7996,190.5506 591.0196,193.4506 C591.0306,193.5006 591.0396,193.5506 591.0496,193.6006 C594.5796,205.2506 594.5796,217.7706 597.2996,229.6206 C598.9706,236.8606 600.8906,244.1406 602.9396,251.3806 C604.8796,258.1706 606.9306,264.9306 609.0106,271.5806 C633.7696,357.3906 657.2206,443.6006 681.3606,529.6006 C652.7806,514.8206 638.2896,487.1906 625.2096,458.9506 C590.7096,386.1806 554.5706,306.7506 515.9596,239.6106 C551.8706,315.9406 601.1296,494.7506 662.4706,539.2006 C671.8296,545.4006 682.0306,550.0706 692.6806,553.7706 C697.1296,557.8006 701.7906,558.6706 704.9196,557.6006 C724.2006,563.0106 744.3906,566.1206 763.3396,570.0906 C796.2006,576.9906 829.0706,583.8406 861.9506,590.6606 C873.0706,592.9606 884.2406,596.0406 895.6006,596.5806 C896.1696,596.6106 896.7206,596.5906 897.2296,596.5206 C872.2006,625.3006 855.3506,664.5906 845.7206,701.4206 C837.8796,699.1606 828.9906,707.5306 826.7206,716.3106 M544.5106,719.4806 C488.8996,802.9506 401.7496,854.7306 329.9796,922.1106 C286.9796,967.4206 252.6896,1020.0306 213.4706,1068.5106 C212.2606,1070.0106 211.0396,1071.5106 209.8206,1073.0006 C206.7996,1076.7206 202.6006,1080.8106 200.1696,1084.4206 C200.1006,1084.5306 200.0306,1084.6306 199.9706,1084.7106 C194.2896,1072.8406 197.3996,1057.6606 197.1896,1044.1306 C198.0596,1020.9506 201.0896,997.9706 205.6406,975.2506 C220.4996,884.0306 271.6606,802.8406 282.7896,711.1006 C282.4196,613.5306 277.5706,515.6806 285.7896,418.1406 C288.7896,373.6206 291.9396,329.0806 296.3996,284.6706 C327.2006,399.1206 417.1406,522.5806 468.2006,601.6206 C488.7996,631.8306 507.2406,664.7906 536.2496,687.9006 C543.2606,693.4406 550.6606,698.2006 558.3606,702.3006 C553.1496,707.4706 548.6896,713.3606 544.5106,719.4806 M726.6606,273.1306 C734.3206,271.1206 751.2296,269.1106 760.0196,263.3306 C764.5676,278.9256 769.4866,294.4006 774.6766,309.7856 C762.0806,306.0626 748.4476,307.8076 735.4726,309.2246 C718.5666,311.0706 701.6836,313.0786 684.8076,315.1816 C669.3496,317.1066 653.9006,319.1056 638.4586,321.1606 C632.9506,301.4046 627.4036,281.6606 621.7696,261.9406 C653.9796,276.8706 692.1806,278.9506 726.6606,273.1306 M744.1896,124.5106 C744.1606,123.2006 743.8506,121.8306 743.1696,120.4206 C743.0706,120.2206 742.9796,120.0206 742.8796,119.8206 C740.2496,110.4306 737.5806,101.0506 734.8606,91.6806 C734.4506,90.1006 731.9506,90.4106 731.9996,92.0706 C731.9796,93.2306 731.9706,94.3806 731.9596,95.5406 C731.7806,95.0606 731.6106,94.5806 731.4396,94.0906 C728.0706,84.3206 725.6006,74.2606 723.9706,64.0406 C752.8306,69.9906 776.6006,132.9906 790.0306,178.0306 C778.9906,174.5906 764.5106,173.8106 760.2206,182.9606 C754.8996,163.4706 749.6206,143.9706 744.1896,124.5106 M699.4136,497.5626 C706.6066,497.0916 713.8016,496.6436 720.9926,496.1446 C735.7076,495.1236 750.4186,494.0596 765.1316,493.0176 C768.6606,492.7676 772.1896,492.5096 775.7186,492.2496 C785.7106,491.6996 795.7036,491.1456 805.6966,490.6126 C816.7446,490.0246 827.9216,489.0216 839.0526,488.6126 C841.1476,488.5666 843.2436,488.5326 845.3386,488.5106 C845.7516,489.3506 846.1786,490.1756 846.6406,490.9606 C831.9706,495.0206 818.5706,499.7206 807.8306,504.4606 C783.4306,515.1506 759.9706,529.2206 739.9306,546.9106 C736.2206,546.1406 732.5106,545.3606 728.7996,544.5706 C718.6206,542.3706 708.3106,540.0206 698.3796,536.6706 C695.8396,530.4406 695.0106,523.1206 692.8506,516.9806 C691.1376,510.8276 689.4246,504.6726 687.7116,498.5186 C691.6246,498.4526 695.6266,497.8096 699.4136,497.5626 M675.1336,447.2386 C675.2656,447.2246 675.3966,447.2086 675.5276,447.1936 C675.5436,447.1936 675.5606,447.1926 675.5766,447.1926 C677.1826,447.1416 678.7876,447.0796 680.3926,447.0046 C683.6016,446.8556 686.8096,446.6636 690.0146,446.4356 C696.4326,445.9786 702.8376,445.3686 709.2336,444.6706 C722.0466,443.2706 734.8186,441.5206 747.6036,439.8926 C755.1366,438.9326 762.6436,438.1066 770.1446,437.4036 C787.6826,436.2396 805.2736,435.3476 822.7926,435.1006 C828.3996,448.4506 834.0906,461.7606 839.8306,475.0406 C840.3716,476.2796 840.8976,477.6276 841.4316,479.0266 C815.6776,478.5356 789.8136,480.9786 764.1506,482.5146 C749.7646,483.3756 735.3766,484.2126 720.9926,485.0976 C713.7976,485.5396 706.6056,486.0296 699.4136,486.4996 C694.6116,486.8126 689.4506,486.6056 684.6486,487.5126 C683.6326,483.8616 682.6166,480.2106 681.6006,476.5606 C678.9386,467.1006 676.3066,457.6316 673.6686,448.1646 C674.1836,447.9166 674.6776,447.6106 675.1336,447.2386 M653.2176,374.3936 C649.0896,359.4586 644.9586,344.5236 640.8056,329.5956 C641.5856,329.4876 642.3656,329.3796 643.1446,329.2716 C646.0606,328.8696 648.9776,328.4706 651.8946,328.0726 C658.3206,327.1976 664.7476,326.3336 671.1766,325.4816 C676.1596,324.8216 681.1436,324.1726 686.1286,323.5256 C691.6326,323.0606 697.1386,322.6176 702.6466,322.2106 C727.5536,320.3736 752.6566,318.6696 777.6466,318.5286 C782.8936,333.7326 788.4186,348.8436 794.1456,363.8806 C772.8926,365.1746 751.6616,366.8876 730.4376,368.5926 C718.2286,369.5736 706.0226,370.5916 693.8206,371.6456 C687.8836,372.1586 681.9486,372.6806 676.0136,373.2106 C672.7166,373.5046 669.4196,373.8026 666.1226,374.1026 C664.2186,374.2756 661.7326,374.9226 659.5906,374.9366 C659.3126,374.7166 659.0226,374.5036 658.7146,374.2906 C657.1526,373.2136 654.8506,373.4026 653.2176,374.3936 M658.1876,386.9986 C672.2046,385.2896 686.1906,383.4496 700.1976,381.7456 C707.9666,380.9906 715.7366,380.2456 723.5086,379.5206 C748.2046,377.2156 772.9286,375.2186 797.6256,372.9446 C804.3266,390.2576 811.2866,407.4736 818.4106,424.6176 C788.1676,422.6226 757.3716,427.7026 727.4676,431.2186 C711.5046,433.0956 695.4986,434.7886 679.4296,435.3876 C676.8856,435.4816 673.3296,435.3496 670.2786,436.0256 C666.1266,421.0836 661.9906,406.1366 657.8596,391.1876 C657.9206,389.7976 658.0286,388.4026 658.1876,386.9986 M906.4796,586.7406 C905.4196,587.7506 904.3796,588.7906 903.3506,589.8606 C903.3706,589.5206 903.3796,589.1906 903.3706,588.8506 C903.3906,588.8406 903.4106,588.8306 903.4196,588.8206 C904.3396,587.9206 905.3606,587.2306 906.4796,586.7406 M887.7696,158.9506 C918.8606,234.3706 945.7096,311.9206 974.8306,388.2606 C984.1696,414.1806 993.3706,440.1506 1002.0706,466.3006 C1005.3706,474.9406 1006.5806,484.6406 1013.3606,491.4306 C1013.6406,491.7106 1013.9506,491.9706 1014.2806,492.1906 C1005.1716,496.0156 996.9426,500.2676 990.3146,504.5666 C993.3626,514.9026 997.0426,525.0476 1001.4386,534.8366 C1003.0096,538.3336 997.8376,541.3816 996.2586,537.8646 C990.6706,525.4226 986.1616,512.4786 982.6286,499.2766 C978.2286,493.3436 973.1376,488.0216 966.5406,484.7006 C953.8106,480.0706 937.7606,478.4706 920.4596,478.9906 C920.1806,478.4906 919.8106,478.0106 919.3606,477.5606 C913.6296,472.0406 911.3606,463.2606 908.5106,455.9506 C900.2206,434.6206 893.1696,412.7906 887.3796,390.6406 C881.6806,368.7106 878.1496,346.2606 872.2296,324.3806 C871.0306,320.5506 867.2996,302.0506 863.8206,303.0706 C863.8906,303.4906 863.9506,303.9006 864.0106,304.3206 C863.8306,304.2006 863.6296,304.1506 863.4306,304.1606 C862.0306,349.4206 873.8606,395.0106 887.4106,438.0206 C891.1606,452.3506 899.6806,465.7606 902.4106,480.2206 C890.5406,481.4506 878.4396,483.4706 866.7096,486.0206 C866.5406,485.0706 866.2996,484.1306 866.0196,483.1806 C865.8606,481.8606 865.4596,480.8206 864.8796,480.0306 C863.3996,476.4106 861.4396,472.8806 859.9906,469.6206 C857.0106,462.8806 854.0496,456.1406 851.1206,449.3706 C835.1696,412.3506 820.0706,374.9306 806.7496,336.8706 C790.3206,290.7206 776.8906,243.6806 763.9306,196.5106 C772.6106,201.1606 789.2996,191.8706 799.5306,213.1006 C801.7406,218.4506 806.6496,222.2706 812.7406,220.6006 C818.0806,219.1306 822.1206,212.9006 820.2406,207.3906 C819.9706,206.4906 819.6806,205.6006 819.3506,204.7306 C809.3796,175.1606 801.3106,144.8106 786.9306,116.9806 C823.8396,120.7106 867.4996,123.3606 887.7696,158.9506 M1231.5706,653.2406 C1234.7606,668.3306 1232.7096,684.2006 1231.8506,699.5606 C1217.2606,680.1706 1198.7696,663.6206 1177.1406,652.6006 C1175.7006,642.9006 1169.5896,634.4506 1166.7696,625.0306 C1161.5606,611.7406 1157.3396,598.1606 1153.5406,584.4506 C1188.8106,591.8006 1223.1406,617.4206 1231.5706,653.2406 M1103.6936,768.8326 C1115.6686,833.4556 1134.6896,896.4546 1148.6216,960.6406 C1149.4396,964.4116 1143.6546,966.0076 1142.8356,962.2356 C1128.9036,898.0496 1109.8836,835.0506 1097.9076,770.4276 C1097.2076,766.6466 1102.9906,765.0416 1103.6936,768.8326 M1097.5476,1362.9626 C1107.1056,1364.3016 1116.6436,1365.4716 1126.2586,1366.4916 C1107.1176,1374.4996 1089.2686,1372.5426 1073.6956,1358.3896 C1081.6676,1360.3296 1089.7016,1361.8126 1097.5476,1362.9626 M1519.2846,1458.1876 C1518.7456,1455.6236 1517.3296,1453.9606 1515.5446,1453.0606 C1515.8166,1399.2786 1402.7716,1381.7976 1368.5166,1347.5496 C1352.8456,1336.4716 1341.4446,1318.1716 1323.2446,1311.3126 C1333.5426,1295.3766 1330.7756,1274.8676 1328.4906,1256.9606 C1323.4926,1224.2896 1310.9336,1187.7766 1307.6496,1167.5806 C1282.8706,1063.7706 1258.8396,959.7106 1230.7996,856.7206 C1230.2296,854.7506 1229.1696,850.8506 1227.8396,846.5406 C1230.8606,847.2706 1233.7496,847.5106 1236.4596,847.1606 C1275.7896,838.4406 1266.9596,758.8806 1257.7206,730.0506 C1256.7296,726.6506 1254.4196,724.5006 1251.7096,723.4906 C1252.0596,721.7306 1251.7406,719.8606 1250.4906,718.0706 C1249.8206,717.1106 1248.7896,716.4206 1247.6696,716.0706 C1246.4796,688.7106 1253.3096,659.3006 1238.9106,634.3006 C1222.7296,606.9606 1184.1296,584.3406 1153.0706,582.7506 C1148.6206,566.6306 1144.7206,550.3506 1140.4196,534.2006 C1135.7006,517.2906 1128.9796,499.1206 1114.8506,487.7806 C1096.5706,471.5206 1057.5496,476.4806 1025.1806,487.9706 C1026.9506,479.5006 1022.9196,471.8406 1020.4506,463.9006 C1012.3996,440.1406 1004.1106,416.4606 995.6496,392.8506 C965.2806,313.2506 940.3396,230.7406 902.3506,154.4206 C886.6206,128.5506 856.3706,116.8906 827.3306,114.4906 C813.7096,113.1206 799.2206,112.5906 785.4706,114.2006 C785.0306,113.3606 784.5806,112.5306 784.1206,111.7006 C772.8506,92.1706 749.9796,55.8106 723.6606,62.0506 C720.8796,43.4806 720.8396,24.4506 723.1296,5.8706 C723.2906,4.5506 721.1296,3.9806 720.5896,5.1806 C703.1496,44.3006 706.3906,92.4406 727.6696,129.4806 C729.2296,132.0506 731.3506,133.3806 733.5496,133.7606 C736.9396,172.6506 745.4106,211.0306 755.8606,248.7006 C754.2906,248.7606 752.7806,249.0906 751.5196,249.6506 C718.1806,261.8606 681.5196,263.8506 646.8206,256.7206 C637.0496,254.6606 627.5896,251.8906 618.0796,249.0706 C616.2806,242.8306 614.4796,236.6106 612.6696,230.3806 C608.1296,210.7006 606.9706,191.7906 595.4506,175.9406 C594.7696,174.7706 594.0706,173.6106 593.3996,172.4506 C584.1496,155.6706 574.7496,138.9806 565.2806,122.3306 C562.9796,119.6006 547.6006,89.2906 535.6296,70.9606 C537.1296,70.9206 538.6806,70.5406 540.1896,69.7806 C548.6296,65.5706 548.5396,53.3606 550.0796,45.1706 C554.7996,19.7206 560.2606,-5.7694 561.7606,-31.6594 C561.8396,-32.9794 559.8206,-33.5394 559.2296,-32.3394 C547.7206,-9.5194 539.7406,14.9006 531.2206,38.9506 C531.0496,39.4306 530.8706,39.9206 530.6806,40.4206 C522.7806,30.4606 508.9106,28.0906 496.8296,30.7706 C476.6406,36.0406 466.4596,52.4506 460.5896,71.1106 C402.5396,98.8206 333.4596,70.5206 298.2296,143.8306 C282.3606,182.1406 282.6606,225.5806 292.9396,270.7906 C266.1696,407.8406 257.7896,548.0406 263.3606,687.4906 C261.3796,781.8206 203.5196,863.6606 186.9396,955.4606 C178.6696,991.6406 173.4796,1028.7306 174.1206,1065.9006 C172.8506,1085.5406 181.5106,1114.5406 206.6696,1106.9006 C209.5396,1105.8706 212.1406,1104.2906 214.5396,1102.3806 C225.0496,1261.4206 347.6106,1292.1806 488.8706,1264.7906 C494.5896,1264.8906 500.2096,1263.5706 506.2206,1261.8806 C509.1406,1261.0106 512.0396,1260.1006 514.9396,1259.1406 C517.1206,1258.6206 519.3096,1258.0906 521.4996,1257.5406 C523.1226,1257.2096 524.7496,1256.8956 526.3756,1256.5746 C566.6516,1229.9436 608.4866,1205.6856 648.2796,1178.3036 C651.0846,1176.3726 654.5206,1180.8586 651.9146,1183.0156 C625.3326,1204.9996 599.3116,1227.9446 571.6526,1248.6096 C650.4546,1236.0816 730.6426,1238.2166 804.2206,1205.7506 C855.8506,1183.1606 904.4396,1137.8906 933.7006,1089.0506 C934.1426,1089.8266 934.5736,1090.6056 935.0116,1091.3826 C933.5896,1087.3416 932.1696,1083.3006 930.7646,1079.2546 C905.8216,1007.4236 883.2536,934.7496 855.9886,863.7396 C854.6006,860.1256 860.4036,858.5766 861.7736,862.1446 C869.4176,882.0536 876.7046,902.0966 883.7656,922.2196 C909.0366,994.2356 931.6256,1067.1856 958.5416,1138.6246 C958.6966,1139.0346 958.7486,1139.4156 958.7356,1139.7686 C964.3566,1153.6316 968.9546,1167.7546 972.1406,1182.2306 C975.4436,1197.3786 980.2736,1229.7326 985.0526,1256.9606 C989.2376,1279.4166 992.2856,1305.4636 1007.8796,1322.7006 C1007.8616,1322.7366 1007.8446,1322.7716 1007.8256,1322.8086 L1007.8266,1322.8086 C1007.2766,1323.8806 1006.7506,1324.9426 1006.2376,1325.9996 C1007.3426,1327.1006 1008.7456,1327.8216 1010.0436,1328.6446 C1010.2446,1327.7006 1010.4396,1326.7616 1010.6606,1325.8006 C1014.4536,1329.8256 1018.6626,1333.4426 1023.1836,1336.7076 C1018.0856,1374.4206 980.1006,1410.9546 999.7696,1450.4316 C990.3946,1472.0116 1013.4046,1489.5696 1032.3416,1494.0226 C1061.3726,1503.3066 1091.3316,1510.2876 1121.0636,1516.9146 C1179.9266,1527.8886 1364.1536,1568.4556 1408.2516,1536.8776 C1407.6196,1530.1376 1415.9076,1508.2386 1406.1256,1507.9156 C1410.4626,1503.6346 1414.0576,1498.6296 1416.7806,1493.1966 C1443.7696,1501.9806 1473.7636,1498.8346 1501.2436,1495.5936 C1523.4676,1496.0736 1522.6526,1474.4226 1519.2846,1458.1876" id="Ink" fill="#000"/></g></g><g id="Head" transform="translate(345.000000, 180.000000) scale(0.9978902953586498 1)"><g id="Head/Bun 2" stroke="none" stroke-width="1" fill="none" fill-rule="evenodd"><path d="M397.5017,243.7566 C395.1257,213.0126 398.8077,180.7886 386.9537,151.5666 C366.2857,103.0816 308.3297,86.9156 263.3987,68.4566 C245.398536,63.1379728 184.830055,62.3945685 163.754,55.3552 C116.053659,39.423363 104.656889,20.4408103 66.7547,50.7756 C60.3567,55.9576 56.3537,61.5896 53.4337,69.2846 L53.5537,69.3176 C52.7197,72.5256 53.6137,75.7266 55.4927,78.1716 C39.0587,94.9696 32.1817,120.1536 40.6137,142.5146 C68.1307,200.7036 66.8367,232.1666 57.9707,294.7226 C46.3927,353.1226 72.8497,374.4556 116.6657,406.2316 C114.8817,409.6906 114.5117,414.2876 116.8377,417.3396 C167.5047,488.5386 263.037604,522.532978 344.890604,486.394978 C378.115604,471.606978 392.9487,436.2236 401.4137,404.2966 C411.2747,368.5476 414.3047,330.8776 406.2767,294.4616 C403.0387,277.6196 398.8207,260.8996 397.5017,243.7566 Z" id="Skin" fill="#d08b5b"/><path d="M34.604,156.542779 L64.7308389,176.612571 L172.569953,62.925405 L136.683492,34.6802511 C93.2789544,66.7591122 67.3095712,87.0317357 58.7753427,95.4981214 C50.2411142,103.964507 42.184,124.312726 34.604,156.542779 Z" id="bandana" fill="#9FD8E5"/><path d="M105.244,-96.8628 C111.394175,-97.7863088 116.038608,-93.970587 118.247976,-88.5923941 L118.364,-88.3028 C119.074,-86.4728 119.864,-84.6928 120.714,-82.9428 C136.104,-90.4928 158.064,-88.5528 167.804,-73.2628 C174.754,-62.3428 170.514,-49.3828 167.894,-37.8028 L166.174,-30.1728 C169.49875,-28.05705 172.005962,-24.2682 171.888262,-20.3448366 L171.874,-20.0428 L171.174,-9.4028 C173.394,-11.6528 175.424,-14.1028 177.234,-16.7128 C178.484,-19.0028 179.834,-21.2528 181.284,-23.4328 C189.814,-36.2628 208.964,-25.1128 201.924,-11.3728 C200.574,-8.7228 199.054,-6.2128 197.424,-3.7928 C195.584,-0.2228 194.074,3.4472 192.914,7.2172 C196.244,8.6672 198.804,11.8872 199.074,16.7472 C199.704,28.0972 193.744,37.5672 184.264,43.5172 C181.474,45.2672 178.594,45.6072 175.984,44.9572 C175.524,45.5772 175.064,46.1972 174.624,46.8272 C178.404,49.8972 181.814,53.3972 184.744,57.2772 C193.564,55.9572 202.434,55.3372 211.304,55.3172 C222.144,50.0072 235.124,50.1172 246.774,52.1072 C254.274,53.3872 261.474,55.8772 268.854,57.6672 C276.634,59.5472 284.534,59.6172 292.404,60.8972 C302.324,62.5072 311.024,67.0872 316.494,74.3972 C322.504,74.5772 328.824,77.0372 334.064,80.3772 C346.264,88.1572 358.394,96.0472 370.564,103.8772 C375.234625,106.883242 376.98101,111.682178 376.122343,117.034803 L376.064,117.3772 L375.654,119.5972 L376.616833,120.963599 C380.341184,126.22304 384.3936,131.732 386.804,137.5372 C391.264,143.9672 395.294,150.7072 398.864,157.6572 C403.674,166.9972 407.644,176.8972 410.334,187.0572 C411.004,189.6272 411.674,192.2172 412.114,194.8372 C412.744,198.5372 411.774,201.4072 411.244,204.9572 C410.584,209.4572 410.344,214.0172 409.644,218.5272 C409.174,221.5172 406.634,222.9872 403.974,223.0672 C404.974,230.6772 405.694,238.3372 406.384,245.9372 C407.354,256.7972 408.014,267.6872 408.584,278.5772 C411.524,282.8472 417.534,286.2272 421.874,287.3972 C427.884,289.0072 434.184,287.2572 439.864,285.2072 C443.434,283.9172 446.364,288.4072 444.624,291.4072 C439.154,300.8272 427.454,300.7872 418.594,296.6172 C414.844,294.8572 411.554,292.3072 409.114,288.9872 C409.264,292.1472 409.424,295.3072 409.584,298.4772 L409.733019,301.348481 C411.534571,334.880433 415.424,369.565811 409.124,402.7672 C398.214,460.2772 350.621536,504.066686 292.484,507.4672 C261.975969,509.251641 236.570564,500.240629 223.937282,495.213915 C211.304,490.1872 216.214126,479.938033 224.9842,482.867831 C240.09212,487.9149 267.846269,495.434144 292.684,492.1872 C351.224,484.534485 400.864,455.275433 395.764,329.2572 C395.040771,311.386598 392.814,293.5072 392.334,275.6372 C391.874,258.1672 392.044,240.6872 391.274,223.2272 L391.017237,217.269998 C390.716593,210.309175 390.395111,203.316089 389.874,196.3472 C389.244,193.6472 388.724,190.9072 387.954,188.2572 C385.864,181.0472 383.134,174.0372 379.744,167.3472 C378.994,167.9172 378.154,168.3272 377.244,168.4872 C370.334,169.7272 363.854,169.3772 357.384,166.4972 C354.364,165.1672 351.704,163.3972 349.224,161.2072 C348.044,160.1772 347.254,159.1772 346.634,158.1372 C343.504,158.1872 340.374,157.2472 338.414,154.9972 C336.178516,152.432684 335.806716,149.783881 336.682306,147.331747 L336.774,147.0872 L336.554,147.0072 C333.914,153.8372 328.654,159.8472 322.884,163.9072 C313.764,170.3472 302.354,172.2072 291.414,172.3772 C279.334,172.5572 266.594,170.6972 254.674,168.7972 C251.524,168.2972 248.394,167.7272 245.324,166.9572 C245.204,167.0772 245.084,167.2172 244.954,167.3372 C234.724,177.1272 220.334,179.6472 207.354,174.0572 C199.854,170.8272 193.564,165.6272 188.004,159.6672 C187.924,162.7872 187.764,165.9072 187.494,168.9972 L187.38219,170.224228 C186.828578,175.979244 185.763333,182.083867 181.414,186.2372 C174.384,192.9672 164.184,190.2672 156.074,185.8872 C156.084,186.0972 156.084,186.3172 156.084,186.5372 C158.274,193.9772 160.474,201.4272 162.674,208.8772 L163.147862,210.46421 C164.747636,215.754142 166.502182,221.050836 166.984,226.5872 C167.904,237.1672 160.864,247.6172 149.104,244.0672 C142.935429,242.211771 137.993633,237.025176 133.251896,232.870958 L130.264,230.2872 C137.994,255.5572 143.354,281.7272 143.854,308.0972 C143.884,309.5272 142.654,310.6072 141.294,310.6572 C138.114,310.7872 134.694,310.1572 131.494,308.8872 C131.314,308.8772 131.134,308.8672 130.944,308.8372 C125.484,308.0472 120.414,306.0772 115.944,303.1672 C116.974,306.4372 117.434,309.9472 117.164,313.6172 C117.094,314.5072 115.704,314.8172 115.504,313.8372 C112.924,301.1472 98.074,291.5572 85.274,293.9872 C71.534,296.5972 61.414,308.4172 58.934,321.8672 C56.274,336.3172 61.364,353.0272 70.794,364.1772 C75.134,369.3172 80.844,373.6072 87.624,374.6872 C90.724,375.1772 93.944,375.0072 96.954,374.1272 C98.234,373.7472 99.434,373.2172 100.654,372.7172 C102.434,371.9972 104.514,371.8872 106.194,371.1272 C110.004,369.4172 113.834,372.9272 111.904,376.8372 C110.224,380.2472 108.714,382.5472 105.924,384.3072 C108.184,387.0672 110.234,390.9072 110.994,391.9372 C114.874,397.1772 118.814,402.1272 123.234,406.9172 C127.734,411.7772 132.644,416.2172 137.834,420.3272 L140.015504,422.05095 C145.014625,426.015794 149.36775,429.6897 152.894,435.3772 C155.674,439.8672 152.074,445.9572 146.864,445.8872 C130.564,445.6572 118.714,431.3372 110.274,418.8272 C109.074,417.0372 107.944,415.1472 106.894,413.2072 C106.514,413.8172 106.094,414.3872 105.624,414.9072 L106.554,417.4072 C109.314,424.7672 97.424,429.5772 93.974,422.7072 C91.464,417.7272 88.554,412.9872 85.314,408.5072 C83.404,408.2372 81.534,407.0772 80.494,405.5772 C77.864,401.7672 74.914,397.9172 72.424,393.8572 C71.044,392.5472 69.624,391.2872 68.174,390.0572 C67.754,390.4272 67.324,390.7972 66.914,391.1872 C65.094,395.3372 62.844,399.1272 60.054,402.6972 L59.4558229,403.45882 C54.110919,410.195002 47.1489091,417.089382 38.534,418.7372 C35.904,419.2372 33.374,415.9672 35.704,413.8772 C41.734,408.4572 48.864,404.7672 54.424,398.7172 C57.1632857,395.736486 59.6783878,392.453986 61.8412012,389.013818 L62.334,388.2172 C62.694,387.6272 63.064,387.0372 63.444,386.4372 C60.934,384.7272 58.424,383.0072 55.914,381.2872 C49.0043226,387.190426 40.0061956,389.890738 32.3636123,394.780705 L31.604,395.2772 C24.694,399.8972 17.414,389.6772 22.954,384.0672 C29.061,377.9062 34.159,370.5592 39.569,363.7112 C37.025,359.0252 35.821,353.4842 35.37,347.8842 C35.192,346.2992 35.053,344.7132 34.914,343.1272 C31.034,343.1872 27.134,341.8572 23.834,339.5672 L22.584,338.6772 C18.574,339.9572 14.364,340.5772 10.334,340.4672 C0.854,340.1872 -3.026,329.3572 2.904,322.5072 C8.954,315.5072 19.544,313.9772 27.934,317.3772 C28.204,317.2372 28.484,317.0872 28.754,316.9372 C28.354,315.0972 28.443,313.4282 28.898,311.9622 L28.766,311.0682 C26.921,308.2372 25.708,305.0052 25.248,301.5902 C24.884,298.8852 24.958,296.2042 25.584,293.5332 C25.792,292.6442 26.225,291.7232 26.556,290.7962 C25.874,289.0742 25.473,287.2942 25.349,285.5042 C25.158,285.2772 24.968,285.0442 24.788,284.7922 C20.625,278.9472 21.466,271.9042 25.428,267.1742 C25.446,266.8732 25.474,266.5722 25.515,266.2732 C25.283,265.7512 25.07,265.2242 24.876,264.6912 C21.005,260.7862 18.163,256.0872 18.693,250.2642 C19.004,246.8382 20.412,243.7542 22.543,241.4492 C22.165,240.3312 22.129,239.0362 22.587,237.9552 C19.186,228.9092 19.616,218.0142 22.064,207.8972 C21.524,206.3572 21.244,204.6872 21.304,202.9172 C21.584,195.4072 28.084,188.5072 35.784,188.5972 C36.711,188.6052 37.579,188.7262 38.413,188.9032 L38.424,188.7242 C38.719,186.4702 39.339,184.3872 40.244,182.5182 C39.799,182.3572 39.387,182.1262 39.026,181.8192 C34.092,184.4512 28.871,186.4632 23.397,187.8342 C19.372,188.8422 15.249,184.2672 17.751,180.4892 C18.912,178.7362 20.193,177.1622 21.573,175.7242 C19.611,175.7352 17.619,175.8682 15.604,176.1272 C11.984,176.5972 7.944,174.1272 5.594,170.7872 C2.674,173.6272 -0.256,176.4572 -3.186,179.2872 C-10.606,186.4772 -21.816,181.1872 -22.986,171.7072 C-25.196,171.1172 -27.256,170.1172 -29.066,168.6872 C-40.766,173.7672 -53.356,176.5572 -66.226,177.0872 C-75.466,177.4672 -80.866,166.7072 -76.546,159.1072 C-73.646,154.0072 -70.046,149.4272 -65.896,145.4472 C-72.336,147.4172 -78.986,148.8372 -85.776,149.7472 C-89.446,150.2372 -94.636,147.1972 -96.106,143.8272 C-101.726,130.8672 -101.246,117.3572 -94.776,104.7472 C-94.526,104.2472 -94.246,103.7672 -93.976,103.2872 C-93.306,101.6172 -92.576,99.9672 -91.786,98.3472 C-99.746,90.0472 -100.436,77.7072 -96.146,67.3772 C-97.866,64.5872 -98.526,61.2272 -97.356,58.1872 C-94.026,49.4372 -89.226,41.3572 -83.166,34.4172 C-83.746,33.2972 -84.256,32.1072 -84.686,30.8272 C-88.096,20.4772 -84.146,7.9872 -76.176,0.7772 C-71.166,-3.7628 -65.406,-6.4828 -59.256,-8.2228 C-56.666,-12.8028 -53.336,-16.9328 -49.456,-20.4128 C-49.306,-20.7428 -49.156,-21.0728 -48.986,-21.4028 C-42.946,-32.7828 -31.946,-38.8828 -20.156,-40.2928 C-19.696,-44.7428 -16.696,-48.9928 -12.336,-50.3728 C-11.136,-54.2228 -9.346,-57.9028 -6.886,-61.2428 C-3.016,-66.5028 3.414,-68.9828 9.474,-65.5328 C12.794,-63.6428 15.974,-61.4728 18.954,-59.0728 C20.2924615,-59.7004923 21.809858,-60.1066462 23.5219199,-60.2362046 L23.954,-60.2628 L33.814,-60.7628 C37.944,-62.5928 42.064,-64.5128 46.194,-66.3828 C48.674,-68.4328 51.444,-70.1428 54.464,-71.4128 C57.884,-72.8428 61.384,-73.6528 64.894,-73.9228 C67.744,-74.8528 70.614,-75.6728 73.534,-76.3128 C80.394,-77.8128 87.574,-78.6528 94.694,-78.5828 C94.8397143,-80.4256571 94.9119592,-82.2905551 94.8981399,-84.1774939 L94.884,-85.1228 C94.724,-91.1728 99.554,-96.0028 105.244,-96.8628 Z M98.334,387.1872 C97.354,387.3972 96.364,387.5672 95.374,387.6872 C95.674,388.4272 95.974,389.1672 96.264,389.9072 C97.064,390.3572 97.874,390.7872 98.684,391.1872 C98.444,389.8272 98.304,388.4572 98.334,387.1872 Z M46.957,371.9202 L46.2921852,373.144348 C46.1844444,373.344644 46.0783333,373.542533 45.974,373.7372 C47.384,373.6272 48.804,373.6572 50.204,373.8172 L50.2,373.6682 C50.02,373.6072 49.84,373.5512 49.668,373.4672 C48.702,373.0032 47.804,372.4832 46.957,371.9202 Z M74.724,316.0673 C83.5712222,316.582578 91.0667855,317.939098 99.1129371,321.809367 L99.804,322.1473 C106.914,325.6773 118.674,332.1973 117.684,341.5473 C117.404,344.2073 115.474,347.0073 112.434,346.7973 C104.104,346.2273 99.344,337.8273 93.704,332.5873 C88.014,327.3073 81.024,321.8773 74.134,318.2473 C73.1600714,317.736229 73.5437194,316.118639 74.6034989,316.066514 L74.724,316.0673 Z M34.604,192.8772 C32.484,192.9472 33.194,195.0072 34.284,193.2872 C34.374,193.1472 34.484,193.0072 34.604,192.8772 Z M149.04,55.3552 C128.962,55.8832 108.755,67.7382 93.714,79.7212 C80.629,90.1462 69.33,102.5462 59.325,115.9112 C56.751,122.5672 54.541,129.3622 52.674,136.2072 C51.444,140.7272 50.674,145.2972 49.644,149.8572 L49.324,151.2552 C48.515,152.7672 47.914,154.3942 47.476,156.0752 C49.299,157.9032 51.664,159.2122 54.268,159.8332 C55.107,160.0332 55.804,160.4662 56.355,161.0402 C58.451,157.5422 60.283,153.8502 61.349,149.9362 L61.388,149.7552 C65.417,143.1562 69.793,136.7622 74.484,130.5872 C87.424,113.5372 101.674,97.9972 118.804,85.0672 C131.794,75.2672 146.314,67.5872 161.754,62.5972 C157.975,59.5482 153.683,57.1362 149.04,55.3552 Z" id="Ink" fill="#000"/></g></g><g id="Face" transform="translate(504.000000, 366.000000) scale(1 1)" fill="#000"><g id="Face/Smile" stroke="none" stroke-width="1" fill="none" fill-rule="evenodd"><path d="M146.586567,240.926554 C139.864291,238.184203 133.866322,233.609781 129.481228,227.766254 C127.956691,225.734803 127.561405,223.589624 127.881219,221.627583 C128.240828,219.421406 129.546036,217.4219 131.326046,216.080693 C133.111571,214.735331 135.345035,214.071832 137.504329,214.410065 C139.380629,214.703969 141.248396,215.731287 142.726594,217.861908 L143.035427,218.287981 C145.642441,221.814933 149.039621,224.708755 152.91047,226.573991 C156.641339,228.371775 160.813939,229.21087 165.131898,228.722919 C173.355732,227.793938 179.024012,223.346401 185.048774,217.30672 C185.795561,216.544195 186.542826,215.757766 187.293714,214.958678 C187.767915,214.234308 188.425986,213.768756 189.156624,213.524488 C189.967867,213.253272 190.885573,213.268617 191.726122,213.56195 C192.536835,213.844871 193.261572,214.380994 193.747527,215.094538 C194.209389,215.772704 194.47125,216.610486 194.386283,217.574143 C193.834826,223.833283 190.562474,229.419299 185.914235,233.805502 C180.751772,238.67694 173.908551,242.047034 167.465957,243.229031 C160.36811,244.531047 153.135593,243.598228 146.586567,240.926554 L146.586567,240.926554 Z M170.814304,144.367155 C178.365682,148.9572 189.871664,159.660291 181.748119,171.039573 C172.185929,181.073062 158.418535,169.568982 151.634201,164.366134 C145.343449,160.333898 138.275437,170.704507 144.112,175.412823 C193.135736,211.708059 213.030606,145.567387 174.633685,138.970386 C170.406047,138.243425 168.835891,142.947174 170.814304,144.367155 Z M82.9633,102.1464 C83.7976284,91.7901242 99.5703,89.4384 101.1393,99.6864 C102.5443,108.8664 100.8903,117.2994 96.7553,125.5644 C92.8043,133.4604 82.8737826,129.776544 82.1227826,122.586544 C81.1160984,112.948648 82.4443,108.588596 82.9633,102.1464 Z M203.027,97.5615 C205.226,94.6815 208.401,92.7155 212.205,93.8265 C224.09,97.2995 220.587,114.1725 216.413,122.3855 C214.145,126.8455 206.814,127.9765 203.501,124.0495 C198.101,117.6455 195.515,104.8565 202.38,98.5485 C202.566,98.2225 202.773,97.8935 203.027,97.5615 Z M96.5879,56.8305 L98.465271,56.501905 C104.27307,55.49746 111.4944,54.5323 115.6029,59.2015 C117.7819,61.6775 118.5319,66.2795 115.6029,68.6495 C110.4509,72.8195 104.7549,71.2035 98.5809,71.5565 C93.4929,71.8485 88.6029,72.6905 83.7019,74.0915 C72.9499,77.1645 64.1889,82.7745 55.0059,88.9345 C53.8009,89.7425 52.5709,88.2015 53.1459,87.0745 C58.4469,76.6915 68.7199,68.1625 79.0099,62.9635 C84.5019,60.1885 90.5119,57.8865 96.5879,56.8305 Z M192.192876,52.1793876 L193.629806,52.4734684 C209.267042,55.742077 229.583473,62.2713911 236.988459,77.6308459 C237.270623,79.8027272 236.97249,80.2682047 236.730054,80.5723213 L236.649336,80.6735209 C236.449568,80.9332186 236.290169,81.2912104 235.348782,81.5868073 C235.087547,81.5245653 234.823712,81.4586426 234.557082,81.3887687 C231.162766,80.499243 228.477205,79.2737961 225.877298,78.0022488 L223.058339,76.6134493 C219.787784,75.0098309 216.488352,73.4645766 212.991711,72.3238115 C205.52958,69.8898666 197.854137,68.1753043 190.059777,67.259767 C188.37041,67.0615005 186.743655,66.4913394 185.460262,65.5141761 C184.242065,64.5866523 183.311441,63.3024737 182.887128,61.5955207 C182.33722,59.3864508 182.495251,57.7140037 183.680513,55.7210991 C184.571756,54.2244705 185.846982,53.1871113 187.311265,52.5914244 C188.804038,51.9841473 190.503545,51.840982 192.192876,52.1793876 Z" id="Ink" fill="#000"/></g></g><g id="Beard" transform="translate(468.000000, 518.000000) scale(1 1)" fill="#000"><g id="Beard/None" stroke="none" stroke-width="1" fill="none" fill-rule="evenodd" fill-opacity="0"/></g><g id="Mask" transform="translate(370.000000, 480.000000) scale(1 1)" fill="#000"><g id="Mask/None" stroke="none" stroke-width="1" fill="none" fill-rule="evenodd" fill-opacity="0"/></g><g id="Accessories" transform="translate(392.000000, 421.000000) scale(1 1)" fill="#000"><g id="Accessories/None" stroke="none" stroke-width="1" fill="none" fill-rule="evenodd" fill-opacity="0"/></g></g></svg>